<svg data-component="ia.shapes.svg" data-component-path="C$0:1:1:0:1$0:0$0:0:0[24].0:1" viewBox="0 0 150.34894 45.275845" preserveAspectRatio="xMidYMid" style="cursor: pointer; margin-top: 20px; flex: 0 0 60px;"><g name="layer1" transform="translate(-31.495977,-130.22229)"><path d="m 141.59933,168.90819 25.4424,-0.14177 v 0 l 0.0237,-3.99237 -0.33073,-1.86626 -0.33073,-1.25204 -0.56696,-1.44104 -0.73131,-1.2561 -0.96885,-1.23612 -0.86863,-0.90204 -1.1693,-1.00226 v 0 l -2.90656,-1.5368 -1.50339,-0.50113 -1.57021,-0.23386 -3.84165,0.101 -2.17336,0.66146 -2.26786,1.18117 -1.74814,1.18118 -1.46466,1.55915 -1.37016,2.07887 -0.70871,1.79538 -0.56696,1.79539 -0.0472,2.12612 z" name="path895" style="fill: rgb(150, 141, 141); fill-opacity: 1; stroke: rgb(0, 0, 0); stroke-linecap: butt; stroke-opacity: 1; stroke-width: 0.264583;"></path><path d="m 99.0903,131.29613 1.93786,7.4166 1.2697,5.1449 1.002,5.01107 0.46767,3.94239 v 7.14943 l -0.53433,5.41208 35.14566,0.73535 1.13585,-3.80855 0.80202,-4.41007 0.13384,-4.47673 -0.26769,-4.00905 -0.40049,-1.93787 -0.73535,-1.20251 -2.2717,-2.27221 -5.27875,-3.74138 -4.00906,-2.27169 -4.87722,-2.47272 -7.61762,-2.6727 -4.61005,-0.86817 -3.80856,-0.33435 -3.07371,-0.2005 z m 2.07119,1.13584 3.40806,0.20051 3.87522,0.33383 4.27622,0.53433 4.07624,0.93586 3.60805,1.26918 4.14238,2.0717 3.9424,2.13786 6.48125,4.47673 0.40102,0.66817 -0.33435,0.46767 -28.33057,-1.46967 -0.73484,-0.26717 -0.66818,-0.53485 z" name="path976" style="fill: rgb(128, 128, 128); fill-opacity: 1; stroke-linecap: butt; stroke-opacity: 1; stroke-width: 0.264583; stroke: rgb(0, 0, 0);" class="psc-Automotive/Car/Scada_Scarlet"></path><path d="m 99.09028,131.29613 -15.50138,0.13332 -3.74189,0.46767 -5.67975,1.06919 -3.60805,1.20251 -3.2737,1.40353 -3.40806,1.87069 -0.4005,1.13585 0.26717,2.4722 0.46767,1.93786 1.00201,1.80403 1.13585,1.40301 1.60403,1.4702 1.60352,1.40301 2.07119,1.8712 1.06919,1.26918 1.26969,1.40353 1.53634,1.87069 1.73736,2.20503 1.60352,2.07119 1.53686,1.93787 1.33635,1.93786 1.53686,1.00201 1.33635,0.46767 1.80402,0.13384 16.83826,0.13333 0.26717,-2.73937 0.26717,-2.67271 v -7.14943 l -0.46767,-3.94239 -1.00201,-5.01107 -1.26969,-5.1449 z m -12.02717,1.06866 H 97.4201 l 1.67018,10.82467 -0.2005,0.40101 -30.66893,-0.93586 -0.46767,-0.19999 -0.73536,-0.33435 -0.93534,-0.86868 -0.66818,-1.40301 -0.13332,-1.6707 1.53685,-0.86817 3.67472,-1.73736 2.87321,-1.13585 3.94239,-1.00252 5.41207,-0.86868 z" name="path983" style="fill-opacity: 1; stroke-linecap: butt; stroke-opacity: 1; stroke-width: 0.264583; fill: rgb(128, 128, 128); stroke: rgb(0, 0, 0);" class="psc-Automotive/Car/Scada_Scarlet"></path><path d="M 238.10156 0.5 L 191.67383 0.67773438 L 181.49609 1.75 L 155.06641 4.9648438 L 135.95898 8.3574219 L 116.49609 13.357422 L 99.888672 18.892578 L 84.888672 23.892578 L 64.53125 31.392578 L 47.566406 38.357422 L 15.46875 40.990234 L 13.416016 44.382812 L 12.34375 47.597656 L 11.09375 51.392578 L 9.9785156 55.722656 L 8.9960938 59.382812 L 8.1484375 62.285156 L 7.5234375 65.007812 L 6.8535156 69.382812 L 6.9414062 70.722656 L 6.1386719 76.035156 L 5.78125 76.660156 L 5.6035156 81.927734 L 0.51367188 87.195312 L 2.2988281 113.89258 L 0.9609375 116.125 L 0.87109375 119.33984 L 1.7636719 121.57031 L 9.7109375 127.46484 L 16.048828 134.33984 L 29.353516 134.25 L 58.548828 139.51758 L 80.691406 141.57227 L 81.673828 141.39258 L 81.40625 124.60742 L 81.941406 120.58984 L 83.638672 115.67773 L 86.316406 110.14258 L 90.335938 104.69727 L 94.621094 99.964844 L 99.621094 96.035156 L 104.44141 93.357422 L 109.35352 90.677734 L 115.42383 88.892578 L 121.31641 87.552734 L 123.39648 87.269531 L 134.25586 87.017578 L 141.20117 88.660156 L 148.77734 91.689453 L 157.23633 96.236328 L 161.65625 100.15039 L 166.95898 105.58008 L 169.86328 111.00977 L 172.00977 114.79688 L 173.9043 120.09961 L 175.29297 126.79297 L 175.54492 131.84375 L 175.41992 143.33398 L 195.36914 143.20703 L 416.13867 146.21484 L 417.38867 135.32227 L 417.56641 127.28516 L 419.70898 120.5 L 422.38867 113.71484 L 427.56641 105.85742 L 433.10352 99.964844 L 439.70898 95.5 L 448.28125 91.035156 L 456.49609 88.535156 L 460.2832 88.28125 L 471.01562 88.154297 L 476.94922 89.037109 L 482.63281 90.931641 L 487.93555 93.583984 L 493.61719 96.740234 L 498.03711 100.5293 L 501.32031 103.9375 L 504.98242 108.60938 L 507.74609 113.35742 L 509.88867 118.80273 L 511.13867 123.53516 L 511.85352 127.55273 L 512.38867 130.58984 L 512.56641 137.375 L 512.29883 145.67773 L 537.38867 142.82227 L 562.56641 139.07227 L 564.70898 138 L 566.13867 136.57227 L 566.67383 134.42773 L 567.74609 107.10742 L 566.49609 102.46484 L 564.35156 97.642578 L 560.06641 89.964844 L 553.99609 82.464844 L 547.38867 78 L 540.24609 74.072266 L 528.28125 69.785156 L 516.67383 66.927734 L 507.38867 64.785156 L 488.45898 61.392578 L 468.28125 58 L 450.24609 55.857422 L 437.74609 54.427734 L 427.20898 54.427734 L 424.88867 53.892578 L 417.38867 49.607422 L 403.28125 42.107422 L 385.95898 33 L 362.56641 21.572266 L 341.31641 12.285156 L 333.45898 9.7851562 L 315.78125 6.3925781 L 297.56641 3.8925781 L 278.45898 1.75 L 258.99609 0.85742188 L 238.10156 0.5 z M 255.47461 4.0585938 L 272.14258 4.5625 L 283.75977 5.3203125 L 298.1543 6.5839844 L 315.57812 9.8652344 L 344.36914 19.966797 L 362.80273 29.3125 L 377.95508 37.898438 L 397.90625 52.039062 L 406.49219 60.626953 L 409.27148 65.171875 L 410.78516 72.496094 L 411.79688 87.648438 L 411.29102 104.56836 L 408.25977 121.23633 L 403.9668 135.63086 L 271.13281 132.85156 L 207.49219 132.34766 L 200.67383 131.8418 L 195.62305 130.07422 L 189.81445 126.28711 L 184.76367 118.96289 L 178.95508 111.63867 L 172.89453 103.81055 L 166.32812 95.476562 L 160.52148 88.40625 L 155.72266 83.101562 L 151.68164 78.304688 L 143.85352 71.232422 L 137.79297 65.929688 L 131.73047 60.373047 L 127.4375 55.070312 L 123.65039 48.251953 L 121.88281 40.927734 L 120.87305 31.583984 L 122.38672 27.291016 L 135.26758 20.220703 L 147.64062 14.916016 L 161.27734 10.371094 L 182.74414 6.3300781 L 196.88672 4.5625 L 255.47461 4.0585938 z " name="path981" transform="matrix(0.26458333,0,0,0.26458333,31.495977,130.22229)" style="fill-opacity: 1; stroke: rgb(0, 0, 0); stroke-linecap: butt; stroke-opacity: 1; stroke-width: 0.999999; fill: rgb(253, 14, 53);"></path><path d="m 53.105658,167.63251 24.803412,0.5135 -0.03341,-4.37654 -0.868627,-3.17383 -1.336347,-2.43883 -2.57247,-2.47224 -2.238383,-1.20272 -2.00452,-0.80181 -1.837478,-0.43431 -2.873148,0.0668 -0.550193,0.075 -3.165549,0.82682 -2.574965,1.41741 -1.322916,1.03944 -2.196986,2.69308 -0.708705,1.46465 -0.590587,2.36236 z" name="path893" style="fill: rgb(150, 141, 141); fill-opacity: 1; stroke: rgb(0, 0, 0); stroke-linecap: butt; stroke-opacity: 1; stroke-width: 0.264583;"></path><path d="m 31.63189,153.29297 v 0 l 0.472471,7.06343 -0.354353,0.59058 -0.02363,0.85045 0.236236,0.59059 2.102493,1.55915 1.67727,1.81901 3.519903,-0.0236 7.724889,1.39379 5.858629,0.54334 0.259861,-0.0472 v 0 l -0.07087,-4.44122 0.590587,-2.36236 0.708705,-1.46465 1.063059,-1.44104 1.133927,-1.25204 1.322914,-1.03944 2.574965,-1.41741 -1.842635,-0.56703 -23.340028,-0.28348 -2.267849,-1.46466 z" name="path903" style="stroke: rgb(0, 0, 0); stroke-linecap: butt; stroke-opacity: 1; stroke-width: 0.264583; fill: rgb(128, 128, 128);"></path><path d="m 162.09892,155.81819 8.84081,-0.18649 1.03943,-0.85045 3.68527,0.94494 2.92932,0.37797 2.22049,-0.0472 0.56697,1.27567 0.33073,1.22842 -0.28349,7.22879 -0.51972,0.94494 -0.56696,0.28348 -13.30004,1.74814 0.0237,-3.99237 -0.33073,-1.86626 -0.33073,-1.25204 -0.56696,-1.44104 -0.73131,-1.2561 -0.96885,-1.23612 -0.86863,-0.90204 z" name="path905" style="stroke: rgb(0, 0, 0); stroke-linecap: butt; stroke-opacity: 1; stroke-width: 0.264583; fill: rgb(128, 128, 128);"></path><path d="m 136.77511,143.99121 2.53274,-2.03753 -17.50514,-8.48078 -2.07887,-0.66146 -14.55209,-2.12611 -22.962048,-0.28354 -14.741072,2.03163 -5.149927,1.32291 -6.860278,2.28386 -11.377072,4.33073 20.13023,2.61828 c 0,0 -0.46767,-1.93787 -0.46767,-1.93787 l -0.267168,-2.4722 0.400492,-1.13585 3.408061,-1.87068 3.273702,-1.40353 3.608049,-1.20251 9.421646,-1.53686 15.501379,-0.13333 11.292336,0.66818 4.61005,0.86816 7.61762,2.67271 8.88628,4.74441 z" name="path907" style="fill-opacity: 1; stroke: rgb(0, 0, 0); stroke-linecap: butt; stroke-opacity: 1; stroke-width: 0.264583; fill: rgb(128, 128, 128);"></path><path d="m 81.429359,131.74364 -1.846916,0.25735 -5.320604,0.96532 -6.881752,2.60604 -3.408061,1.87069 -0.400492,1.13585 0.267166,2.4722 0.467672,1.93786 2.137855,3.20704 5.278747,4.74442 10.089308,12.69534 2.873209,1.46968 6.010486,0.12299 11.242213,0.20671 -5.903006,-3.93516 -3.40134,-2.55127 -1.606622,-1.60662 -1.417484,-2.83497 -3.685048,-11.24479 z m -0.418579,1.40819 3.874183,10.11049 -18.142564,-0.37775 -1.039728,-1.22835 -0.188619,-3.21273 3.307292,-1.79575 6.020819,-2.40502 z" name="path1006" style="fill-opacity: 1; stroke-linecap: butt; stroke-opacity: 1; stroke-width: 0.264583; fill: rgba(128, 128, 128, 0); stroke: rgba(0, 0, 0, 0);"></path><path d="m 97.56585,131.31626 -14.2379,0.20205 -0.65939,0.0393 -1.33377,0.18603 4.49534,11.51868 3.68505,11.24479 1.41748,2.83497 1.60662,1.60662 3.40134,2.55126 5.903,3.93517 36.53524,0.67282 1.13585,-3.80855 0.74414,-4.24367 0.19637,-4.38629 -0.27234,-4.26589 -0.49506,-1.93787 -0.22789,-0.37259 -2.68459,-3.10213 -4.65398,-3.90312 c -2.89862,-1.73465 -4.6624,-2.50616 -7.56233,-3.73931 l -2.04329,-0.84336 -7.52305,-2.6727 -4.61005,-0.86817 -11.36934,-0.66714 z m -10.50272,1.048 10.35699,5.1e-4 3.74137,0.0672 6.99234,0.66146 4.56716,0.40721 4.07624,0.93586 3.60805,1.26917 8.08478,4.20957 6.88226,5.1449 -29.39975,-1.26917 -7.08277,-0.20051 -5.50871,-0.19792 -6.36809,-0.24081 -4.4819,-10.3973 z" name="path1002" style="fill-opacity: 1; stroke-linecap: butt; stroke-opacity: 1; stroke-width: 0.264583; fill: rgba(128, 128, 128, 0); stroke: rgba(0, 0, 0, 0);"></path></g></svg>